<?xml version="1.0" encoding="UTF-8"?>
<svg viewBox="0 0 512 512" xmlns="http://www.w3.org/2000/svg">
  <defs>
    <mask id="cutouts">
      <rect width="100%" height="100%" fill="white"/>
      <rect id="flash" x="338" y="186" width="78" height="22" rx="1" fill="black"/>
      <circle id="outer-lens" cx="256" cy="278" r="88" fill="black"/>
      <circle id="inner-lens" cx="256" cy="278" r="56" fill="white"/>
      <path
        id="f-glyph"
        fill="black"
        d="
          M240 252
          A1 1 0 0 1 241 251
          H271
          A1 1 0 0 1 272 252

          V263
          A1 1 0 0 1 271 264
          H252

          V273
          H270
          A1 1 0 0 1 271 274

          V285
          A1 1 0 0 1 270 286
          H252

          V307
          A1 1 0 0 1 251 308
          H241
          A1 1 0 0 1 240 307

          Z
        "
      />
    </mask>
  </defs>
  <rect id="background" width="512" height="512" fill="#002a36"/>
  <path
    id="camera"
    mask="url(#cutouts)"
    fill="#00607c"
    d="
      M80 190
      C80 175 83 170 104 170

      H185
      A1 1 0 0 0 186 169
      C190 134 190 128 209 128

      H303
      C322 128 322 134 327 170
      H412

      C429 170 432 175 432 190
      V366
      C432 381 430 386 412 386

      H100
      C82 386 80 381 80 366
      Z
    "
  />

  <!--
  Modified Noto Emoji U+1F4E6 "package" glyph
  Original source: https://github.com/googlefonts/noto-emoji/blob/v2.028/svg/emoji_u1f4e6.svg
  -->
  <g id="noto-color-emoji-package-icon" transform="matrix(1.6,0,0,1.6,316,280)">
    <g id="box">
      <path
        id="top"
        fill="#dea66c"
        d="M 62.54,4.84 10.38,31.73 C 9.24,32.4 8.91,33.4 8.92,34.85 l 0.1,1.81 55.07,28.24 54.94,-27.79 c 0,0 0.06,-0.28 0.06,-1.26 0,0 -0.05,-1.29 -0.34,-1.89 -0.32,-0.68 -1,-1.29 -1.44,-1.66 -1.17,-0.97 -2.34,-1.83 -4.33,-2.95 C 84.45,13.22 65.69,4.91 65.69,4.91 64.48,4.46 63.48,4.3 62.54,4.84 Z"
      />
      <path
        id="left"
        fill="#b38251"
        d="m 9.74,96.16 c 3.04,2.01 8.59,4.65 14.2,7.69 13.04,7.06 29.52,15.64 37.72,19.01 1.11,0.46 1.77,0.68 2.54,0.72 0.57,0.03 1.51,-0.35 1.51,-0.35 0,0 -1.53,-55.19 -1.62,-58.34 -0.09,-3.08 -1.38,-4.1 -2.52,-4.84 -1.78,-1.14 -5.64,-2.92 -5.64,-2.92 0,0 -13.52,-6.72 -27.02,-13.8 C 22.49,39.96 17.07,36.51 11.24,33.67 10.17,33.16 8.91,33.8 8.91,35 c 0,0 0,59.8 0,59.8 0,0.57 0.35,1.05 0.83,1.36 z"
      />
      <path
         id="front"
         fill="#966239"
         d="M 117.58,96.51 65.82,123.2 C 64.99,123.63 64,123.03 64,122.09 l 0.09,-57.18 c 0,-0.55 -0.17,-1.76 -0.34,-2.24 -0.47,-1.4 0.55,-1.96 1.01,-2.19 L 116.1,34.04 c 1.36,-0.7 2.99,0.29 2.99,1.82 v 58.19 c 0,1.03 -0.58,1.98 -1.51,2.46 z"
      />
    </g>
    <path
       id="front-shadow"
       fill="#212121"
       style="opacity:0.5"
       d="m 94.46,47.59 c 0,0 -28.37,14.51 -28.83,15.74 -0.46,1.22 22.26,-9.7 24.92,-11.07 3.01,-1.55 26.65,-14.19 26.65,-15.58 0.01,-1.14 -22.74,10.91 -22.74,10.91 z"
    />
    <g id="this-way-up-icon" style="opacity:0.5">
      <path
         fill="#212121"
         d="m 12.81,92.85 c 3.69,1.86 7.35,3.78 11.91,6.11 0,-0.71 0,-1.07 0,-1.78 -4.54,-2.32 -8.21,-4.23 -11.91,-6.11 0,0.71 0,1.07 0,1.78 z"
      />
      <path
         fill="#212121"
         d="m 20.58,93.66 c 1.04,0.53 1.56,0.8 2.54,1.3 0.01,-3.1 0.01,-4.65 0.02,-7.75 -0.98,-0.5 -1.49,-0.76 -2.52,-1.29 -0.02,3.1 -0.03,4.64 -0.04,7.74 z"
      />
      <path
         fill="#212121"
         d="m 14.12,90.34 c 0.86,0.44 1.34,0.69 2.32,1.19 0.02,-3.09 0.03,-4.63 0.05,-7.72 -0.99,-0.51 -1.47,-0.75 -2.34,-1.21 -0.01,3.1 -0.02,4.65 -0.03,7.74 z"
      />
      <path
         fill="#212121"
         d="m 18.95,85.99 c 2.37,1.21 3.63,1.86 5.72,2.92 -1.04,-1.89 -1.61,-2.85 -2.75,-4.79 -1.17,0.76 -1.78,1.13 -2.97,1.87 z"
      />
      <path
         fill="#212121"
         d="m 12.81,82.84 c 1.77,0.92 2.96,1.53 5.3,2.73 -1.16,-1.95 -1.74,-2.92 -2.81,-4.83 -1.09,0.79 -1.6,1.2 -2.49,2.1 z"
      />
    </g>
    <g id="fragile-icon" style="opacity:0.5">
      <path
         fill="#212121"
         d="m 31.81,101.4 c 0.83,0.43 1.26,0.66 2.09,1.09 -0.06,-3.68 -0.09,-5.52 -0.16,-9.2 -0.8,-0.42 -1.2,-0.63 -2,-1.04 0.03,3.66 0.04,5.49 0.07,9.15 z"
      />
      <path
         fill="#212121"
         d="m 28.76,100.75 c 3.04,1.6 5.4,2.8 8.32,4.36 v 0 c -0.02,-1.05 -0.83,-2.32 -1.93,-2.91 -1.72,-0.91 -2.7,-1.41 -4.44,-2.32 -1.12,-0.57 -1.95,-0.16 -1.95,0.87 z"
      />
      <path
         fill="#212121"
         d="m 34.55,90.36 c 0.51,1.08 0.77,1.63 1.28,2.71 -0.4,0.85 -0.61,1.28 -1.03,2.12 0.36,-0.03 0.54,-0.04 0.9,-0.07 0.48,-0.64 0.72,-0.96 1.18,-1.6 -0.42,-0.99 -0.64,-1.49 -1.08,-2.48 1.22,0.67 1.82,1.01 2.93,1.66 0,3.58 -2.34,5.16 -5.86,3.32 -3.52,-1.83 -5.85,-5.92 -5.85,-9.51 2.62,1.31 4.38,2.17 7.53,3.85 z"
      />
    </g>
    <g id="packaging-tape">
      <path
         id="packging-tape-top"
         fill="#ffe0b2"
         d="M 100.74,41.49 C 100.24,41.12 46.55,13.07 46.55,13.07 l -16.66,8.61 55.05,28.39 0.03,0.03 16.11,-8.25 c 0,0 -0.03,-0.08 -0.12,-0.18 -0.07,-0.06 -0.19,-0.15 -0.22,-0.18 z"
      />
      <path
         id="packaging-tape-front"
         fill="#bf9f85"
         d="m 101,41.73 c -9.12,4.49 -16.06,8.34 -16.06,8.34 0.23,0.23 0.24,0.53 0.24,0.68 -0.03,1.16 -0.05,2.08 -0.08,3.23 -0.14,5.95 -0.22,11.91 -0.42,17.86 0.67,-0.4 1.48,0.48 2.09,0 0.94,-0.74 2.94,-4 3.24,-4.1 0.4,-0.13 0.83,-0.03 1.24,-0.05 1.8,-0.1 5.83,-3.77 6.69,-3.94 0.83,-0.16 3.57,0.37 3.57,0.37 0,0 -0.19,-18.15 -0.26,-21.2 C 101.23,41.84 101,41.73 101,41.73 Z"
      />
    </g>
  </g>
</svg>
